<svg width="50" height="50" viewBox="0 0 50 50" fill="none" xmlns="http://www.w3.org/2000/svg">
<circle cx="25" cy="25" r="25" fill="#3E5FED" fill-opacity="0.15"/>
<path d="M32.6049 15.8525H16.605C15.505 15.8525 14.605 16.7525 14.605 17.8525V29.8525C14.605 30.9525 15.505 31.8525 16.605 31.8525H25.605V29.8525H16.605V19.8525L23.545 24.1925C24.195 24.6025 25.015 24.6025 25.665 24.1925L32.6049 19.8525V24.8525H34.6049V17.8525C34.6049 16.7525 33.7049 15.8525 32.6049 15.8525ZM24.605 22.8525L16.605 17.8525H32.6049L24.605 22.8525ZM31.6049 28.0625C31.6049 27.6125 32.1449 27.3925 32.4549 27.7125L35.2449 30.5025C35.4449 30.7025 35.4449 31.0125 35.2449 31.2125L32.4549 34.0025C32.1449 34.3125 31.6049 34.0925 31.6049 33.6425V31.8525H28.6049C28.0549 31.8525 27.605 31.4025 27.605 30.8525C27.605 30.3025 28.0549 29.8525 28.6049 29.8525H31.6049V28.0625Z" fill="#3E5FED"/>
</svg>
