<svg width="50" height="50" viewBox="0 0 50 50" fill="none" xmlns="http://www.w3.org/2000/svg">
<circle cx="25" cy="25" r="25" fill="#E09746" fill-opacity="0.15"/>
<path d="M31 23.48V19C31 17.9 30.1 17 29 17H17C15.9 17 15 17.9 15 19V31C15 32.1 15.9 33 17 33H29C30.1 33 31 32.1 31 31V26.52L35 30.5V19.5L31 23.48ZM29 31H17V19H29V31Z" fill="#E09746"/>
<path d="M23 25C24.1045 25 25 24.1046 25 23C25 21.8954 24.1045 21 23 21C21.8954 21 21 21.8954 21 23C21 24.1046 21.8954 25 23 25Z" fill="#E09746"/>
<path d="M27 28.43C27 27.62 26.52 26.9 25.78 26.58C24.93 26.21 23.99 26 23 26C22.01 26 21.07 26.21 20.22 26.58C19.48 26.9 19 27.62 19 28.43V29H27V28.43Z" fill="#E09746"/>
</svg>
