<svg width="36" height="36" viewBox="0 0 36 36" fill="none" xmlns="http://www.w3.org/2000/svg">
<circle cx="18" cy="18" r="18" fill="#1D1C1D"/>
<path d="M11.068 26C11.618 26.088 12.08 26.22 12.542 26.22C13.312 26.22 13.972 25.912 13.972 24.724C13.972 23.316 13.884 21.974 13.884 20.742V18.542C14.918 18.498 16.48 18.454 17.91 18.454C19.252 18.454 20.704 18.476 21.694 18.542C21.672 20.632 21.584 22.722 21.584 24.394C21.584 25.538 21.892 26.22 22.992 26.22C23.674 26.22 23.938 26.088 24.51 26C24.312 25.032 24.224 19.994 24.224 17.31C24.224 15.462 24.312 13.658 24.312 11.744C24.312 10.886 23.564 10.38 22.574 10.38C22.222 10.38 21.738 10.468 21.364 10.578C21.364 10.578 21.496 10.776 21.584 12.91C21.628 14.142 21.672 15.594 21.694 17.156C20.638 17.2 18.966 17.244 17.448 17.244C16.128 17.244 14.764 17.222 13.906 17.156C13.928 14.978 13.95 12.624 13.95 11.744C13.95 10.886 13.202 10.38 12.212 10.38C11.86 10.38 11.376 10.468 11.002 10.578C11.002 10.578 11.112 10.776 11.222 12.91C11.266 13.966 11.354 18.586 11.354 19.906C11.354 25.384 11.068 26 11.068 26Z" fill="white"/>
</svg>
