<svg width="30" height="35" viewBox="0 0 30 35" fill="none" xmlns="http://www.w3.org/2000/svg">
<path fill-rule="evenodd" clip-rule="evenodd" d="M15.7616 0.695157C17.8013 2.05797 20.0007 3.15484 22.3083 3.96011C24.0205 4.56687 25.8353 4.81589 27.6441 4.69231L29.5206 4.51852L29.6129 6.43875C29.9568 13.5014 28.8382 19.6382 26.4919 24.4786C24.0505 29.5157 20.2976 33.1538 15.4791 35H14.2263C9.5169 33.2479 5.7919 29.7094 3.31976 24.6097C1.01261 19.8234 -0.170329 13.641 0.0198358 6.26781L0.0701736 4.37322L1.91869 4.47009C3.93097 4.60309 5.95092 4.39221 7.8949 3.84615C9.99917 3.21995 11.9642 2.1837 13.6809 0.794872L14.6849 0L15.7616 0.695157ZM14.8024 5.49858C18.5861 7.94302 22.0035 9.09972 24.937 8.83191C25.4488 19.3732 21.6231 27.4302 14.8415 30.0313C8.28921 27.5954 4.416 19.8177 4.70404 8.66382C8.14659 8.849 11.5276 8.09402 14.8024 5.49858ZM12.7273 17.5527C12.9884 17.7796 13.235 18.0232 13.4656 18.2821C14.1628 17.1369 14.9355 16.0413 15.7784 15.0028C18.0827 12.1681 17.3948 12.3533 20.5912 12.3533L20.1354 12.8547C18.9353 14.2261 17.8325 15.6828 16.8354 17.2137C15.727 18.8467 14.7219 20.55 13.8264 22.3134L13.5467 22.8575L13.2922 22.3048C12.8402 21.2997 12.2682 20.3553 11.5891 19.4929C10.9765 18.7043 10.2449 18.0196 9.42181 17.4644C9.8385 16.0712 11.824 16.7863 12.7133 17.5527H12.7273ZM14.7912 2.25356C19.6516 5.38746 24.0393 6.87464 27.8091 6.52707C28.4663 20.0855 23.5499 29.9373 14.8415 33.2792C6.43231 30.1481 1.45726 20.641 1.8264 6.31909C6.24774 6.55271 10.588 5.5812 14.7912 2.25356Z" fill="#45B4E0"/>
</svg>
