<svg width="18" height="18" viewBox="0 0 18 18" fill="none" xmlns="http://www.w3.org/2000/svg">
<path d="M16.2217 12.2681L13.6817 11.9781C13.0717 11.9081 12.4717 12.1181 12.0417 12.5481L10.2017 14.3881C7.37174 12.9481 5.05174 10.6381 3.61174 7.79807L5.46174 5.94807C5.89174 5.51807 6.10174 4.91807 6.03174 4.30807L5.74174 1.78807C5.62174 0.778067 4.77174 0.0180664 3.75174 0.0180664H2.02174C0.89174 0.0180664 -0.0482601 0.958066 0.0217399 2.08807C0.55174 10.6281 7.38174 17.4481 15.9117 17.9781C17.0417 18.0481 17.9817 17.1081 17.9817 15.9781V14.2481C17.9917 13.2381 17.2317 12.3881 16.2217 12.2681Z" fill="#B0AFB0"/>
</svg>
