<svg width="50" height="50" viewBox="0 0 50 50" fill="none" xmlns="http://www.w3.org/2000/svg">
<circle cx="25" cy="25" r="25" fill="#E05631" fill-opacity="0.15"/>
<path d="M17 26C18.1 26 19 25.1 19 24C19 22.9 18.1 22 17 22C15.9 22 15 22.9 15 24C15 25.1 15.9 26 17 26ZM18.13 27.1C17.76 27.04 17.39 27 17 27C16.01 27 15.07 27.21 14.22 27.58C13.48 27.9 13 28.62 13 29.43V31H17.5V29.39C17.5 28.56 17.73 27.78 18.13 27.1ZM32.9999 26C34.0999 26 34.9999 25.1 34.9999 24C34.9999 22.9 34.0999 22 32.9999 22C31.9 22 31 22.9 31 24C31 25.1 31.9 26 32.9999 26ZM36.9999 29.43C36.9999 28.62 36.5199 27.9 35.7799 27.58C34.9299 27.21 33.9899 27 32.9999 27C32.6099 27 32.24 27.04 31.87 27.1C32.27 27.78 32.5 28.56 32.5 29.39V31H36.9999V29.43ZM29.24 26.65C28.07 26.13 26.63 25.75 25 25.75C23.37 25.75 21.93 26.14 20.76 26.65C19.68 27.13 19 28.21 19 29.39V31H31V29.39C31 28.21 30.32 27.13 29.24 26.65ZM21.07 29C21.16 28.77 21.2 28.61 21.98 28.31C22.95 27.93 23.97 27.75 25 27.75C26.03 27.75 27.05 27.93 28.02 28.31C28.79 28.61 28.83 28.77 28.93 29H21.07ZM25 21C25.55 21 26 21.45 26 22C26 22.55 25.55 23 25 23C24.45 23 24 22.55 24 22C24 21.45 24.45 21 25 21ZM25 19C23.34 19 22 20.34 22 22C22 23.66 23.34 25 25 25C26.66 25 28 23.66 28 22C28 20.34 26.66 19 25 19Z" fill="#E05631"/>
</svg>
