<svg width="22" height="20" viewBox="0 0 22 20" fill="none" xmlns="http://www.w3.org/2000/svg">
<path d="M1.83333 4.49992H0V9.08325H0.00916667L0 17.3333C0 18.3416 0.825 19.1666 1.83333 19.1666H18.3333V17.3333H1.83333V4.49992ZM6.41667 12.7499H19.25L16.0417 8.62492L13.75 11.3841L10.5417 7.24992L6.41667 12.7499ZM20.1667 2.66659H12.8333L11 0.833252H5.5C4.49167 0.833252 3.67583 1.65825 3.67583 2.66659L3.66667 13.6666C3.66667 14.6749 4.49167 15.4999 5.5 15.4999H20.1667C21.175 15.4999 22 14.6749 22 13.6666V4.49992C22 3.49159 21.175 2.66659 20.1667 2.66659ZM20.1667 13.6666H5.5V2.66659H10.2392L12.0725 4.49992H20.1667V13.6666Z" fill="#B0AFB0"/>
</svg>
