<svg width="16" height="16" viewBox="0 0 16 16" fill="none" xmlns="http://www.w3.org/2000/svg">
<path fill-rule="evenodd" clip-rule="evenodd" d="M3.34545 7.99991C3.34545 7.49182 3.43163 7.00471 3.58545 6.54782L0.893086 4.53467C0.368359 5.57787 0.0727224 6.75333 0.0727224 7.99991C0.0727224 9.24542 0.367995 10.4202 0.891995 11.4627L3.5829 9.4456C3.43054 8.99085 3.34545 8.50551 3.34545 7.99991Z" fill="#FBBC05"/>
<path fill-rule="evenodd" clip-rule="evenodd" d="M8.07272 3.37773C9.2 3.37773 10.2182 3.76885 11.0182 4.40885L13.3455 2.13329C11.9273 0.924401 10.1091 0.177734 8.07272 0.177734C4.91127 0.177734 2.19418 1.94805 0.893085 4.53471L3.58545 6.54787C4.20581 4.70396 5.97418 3.37773 8.07272 3.37773Z" fill="#EB4335"/>
<path fill-rule="evenodd" clip-rule="evenodd" d="M8.07272 12.6223C5.97418 12.6223 4.20581 11.2961 3.58545 9.45215L0.893085 11.4649C2.19418 14.052 4.91127 15.8223 8.07272 15.8223C10.024 15.8223 11.8869 15.1439 13.2851 13.8728L10.7294 11.9382C10.0084 12.383 9.10036 12.6223 8.07272 12.6223Z" fill="#34A853"/>
<path fill-rule="evenodd" clip-rule="evenodd" d="M15.7091 7.99986C15.7091 7.53764 15.6364 7.03986 15.5273 6.57764H8.07272V9.59986H12.3636C12.1491 10.6303 11.5651 11.4224 10.7294 11.938L13.2851 13.8726C14.7538 12.5378 15.7091 10.5495 15.7091 7.99986Z" fill="#4285F4"/>
</svg>
