<svg width="52" height="52" viewBox="0 0 52 52" fill="none" xmlns="http://www.w3.org/2000/svg">
<circle cx="26" cy="26" r="26" fill="#FFF1D6"/>
<path d="M32 22.5H31V20.5C31 17.74 28.76 15.5 26 15.5C23.24 15.5 21 17.74 21 20.5H23C23 18.84 24.34 17.5 26 17.5C27.66 17.5 29 18.84 29 20.5V22.5H20C18.9 22.5 18 23.4 18 24.5V34.5C18 35.6 18.9 36.5 20 36.5H32C33.1 36.5 34 35.6 34 34.5V24.5C34 23.4 33.1 22.5 32 22.5ZM32 34.5H20V24.5H32V34.5ZM26 31.5C27.1 31.5 28 30.6 28 29.5C28 28.4 27.1 27.5 26 27.5C24.9 27.5 24 28.4 24 29.5C24 30.6 24.9 31.5 26 31.5Z" fill="#FDC048"/>
</svg>
