<svg width="35" height="35" viewBox="0 0 35 35" fill="none" xmlns="http://www.w3.org/2000/svg">
<path fill-rule="evenodd" clip-rule="evenodd" d="M17.5 0C27.1643 0 35 7.83569 35 17.5C35 27.1643 27.1643 35 17.5 35C7.83569 35 0 27.1643 0 17.5C0 7.83569 7.83569 0 17.5 0ZM7.34294 22.4361C7.09229 21.9747 7.26318 21.3965 7.72461 21.1458C8.18604 20.8952 8.76424 21.0632 9.01489 21.5247C10.046 23.4159 11.6695 24.7689 13.5266 25.5721C14.9736 26.1987 16.5658 26.4893 18.1266 26.4437C19.6761 26.3981 21.1914 26.0164 22.5073 25.2987C23.9941 24.4869 25.2246 23.2422 25.9566 21.5531C26.1646 21.0718 26.7228 20.8496 27.2042 21.0575C27.6855 21.2655 27.9077 21.8237 27.6998 22.3051C26.7883 24.41 25.2588 25.9623 23.4159 26.9678C21.8323 27.8308 20.0208 28.2894 18.1779 28.3435C16.3493 28.3976 14.4808 28.053 12.7718 27.3153C10.5444 26.3554 8.5905 24.7233 7.34294 22.4361ZM8.51074 12.6721C8.18034 13.0794 7.57935 13.1421 7.17204 12.8117C6.76473 12.4813 6.70207 11.8803 7.03247 11.473C7.18628 11.285 7.35718 11.1112 7.54517 10.9574C8.337 10.3109 9.50195 9.87793 10.7096 9.81527C11.9287 9.7526 13.2105 10.0574 14.2273 10.8834C14.4609 11.0742 14.6773 11.285 14.8682 11.5186C15.2014 11.9259 15.1416 12.5269 14.7343 12.8601C14.327 13.1934 13.726 13.1335 13.3927 12.7262C13.2731 12.5838 13.1535 12.4613 13.0282 12.3588C12.4129 11.8575 11.5983 11.6752 10.8093 11.7179C10.0061 11.7607 9.24845 12.0313 8.7557 12.4357C8.65601 12.5183 8.57341 12.5952 8.51074 12.6721ZM20.1318 11.473C19.8014 11.8803 19.2004 11.943 18.7931 11.6125C18.3858 11.2821 18.3232 10.6812 18.6536 10.2738C18.8074 10.0859 18.9783 9.91211 19.1663 9.76115C19.9581 9.11458 21.123 8.68164 22.3307 8.61898C23.5498 8.55632 24.8315 8.86108 25.8484 9.68709C26.082 9.87793 26.2984 10.0887 26.4893 10.3223C26.8225 10.7296 26.7627 11.3306 26.3554 11.6638C25.9481 11.9971 25.3471 11.9373 25.0138 11.5299C24.8971 11.3875 24.7746 11.2651 24.6493 11.1625C24.034 10.6612 23.2194 10.4789 22.4304 10.5216C21.6272 10.5644 20.8695 10.835 20.3768 11.2394C20.2771 11.3163 20.1945 11.3961 20.1318 11.473Z" fill="#45B4E0"/>
</svg>
